<svg width="358" height="250" viewBox="0 0 358 250" fill="none" xmlns="http://www.w3.org/2000/svg">
<rect x="113" y="46" width="132" height="157" stroke="#919191" stroke-width="2"/>
<path d="M107 40V202.5C107 206.366 110.134 209.5 114 209.5C117.866 209.5 121 206.366 121 202.5V54H160C163.866 54 167 50.866 167 47C167 43.134 163.866 40 160 40H107Z" fill="white"/>
<path d="M250.5 209.5V47C250.5 43.134 247.366 40 243.5 40C239.634 40 236.5 43.134 236.5 47V195.5H197.5C193.634 195.5 190.5 198.634 190.5 202.5C190.5 206.366 193.634 209.5 197.5 209.5H250.5Z" fill="white"/>
</svg>
