<svg width="358" height="250" viewBox="0 0 358 250" fill="none" xmlns="http://www.w3.org/2000/svg">
<path d="M54 117.943V184.443H305V68.9434H230V106.443H174.5V68.9434H98V117.943H54Z" fill="#3F361A"/>
<path d="M53.5 183.943H305.5M54 104.443L63.0783 112.311C70.6327 118.858 81.9685 118.431 89.0095 111.335L128.056 71.9812C134.861 65.1229 145.728 64.4631 153.313 70.4477L192.276 101.192C199.157 106.621 208.858 106.64 215.759 101.237L253.973 71.3168C262.064 64.9819 273.726 66.228 280.296 74.1296L305.5 104.443" stroke="white"/>
<path d="M151.184 73.4161C144.986 68.4373 136.026 68.9551 130.443 74.6148L105.992 99.4008L101.009 94.4848L125.46 69.6989C133.564 61.4832 146.571 60.7314 155.568 67.9587L172.671 81.6971L181.649 88.6801L177.352 94.2055L168.33 87.1887L151.184 73.4161Z" fill="white"/>
<path d="M251.558 68.6862C261.272 61.131 275.254 62.7815 282.941 72.391L297.233 90.2564L291.767 94.6292L277.475 76.7639C272.179 70.144 262.547 69.007 255.856 74.2117L230.149 94.2055L225.852 88.6801L251.558 68.6862Z" fill="white"/>
<path d="M179 187.443H103.5V180.443H179V187.443Z" fill="white"/>
<path d="M234 187.444H295V180.444H234V187.444Z" fill="white"/>
<path d="M56 187.943C58.2091 187.943 60 186.152 60 183.943C60 181.734 58.2091 179.943 56 179.943C53.7909 179.943 52 181.734 52 183.943C52 186.152 53.7909 187.943 56 187.943ZM99 187.943C101.209 187.943 103 186.152 103 183.943C103 181.734 101.209 179.943 99 179.943C96.7909 179.943 95 181.734 95 183.943C95 186.152 96.7909 187.943 99 187.943ZM174 187.943C176.209 187.943 178 186.152 178 183.943C178 181.734 176.209 179.943 174 179.943C171.791 179.943 170 181.734 170 183.943C170 186.152 171.791 187.943 174 187.943ZM230 187.943C232.209 187.943 234 186.152 234 183.943C234 181.734 232.209 179.943 230 179.943C227.791 179.943 226 181.734 226 183.943C226 186.152 227.791 187.943 230 187.943Z" fill="#07FDFA" stroke="black" stroke-width="2"/>
</svg>
