<svg width="24" height="24" viewBox="0 0 24 24" fill="none" xmlns="http://www.w3.org/2000/svg">
<rect x="7.50977" y="12.6953" width="3.3742" height="9.25955" rx="1.6871" stroke="black" stroke-width="1.25"/>
<rect x="13.1152" y="1.625" width="3.3742" height="9.25955" rx="1.6871" stroke="black" stroke-width="1.25"/>
<rect x="13.1152" y="16.0703" width="3.3742" height="9.25955" rx="1.6871" transform="rotate(-90 13.1152 16.0703)" stroke="black" stroke-width="1.25"/>
<rect x="1.625" y="10.8848" width="3.3742" height="9.25955" rx="1.6871" transform="rotate(-90 1.625 10.8848)" stroke="black" stroke-width="1.25"/>
<path d="M10.884 3.3129V5H9.19687C8.26511 5 7.50977 4.24466 7.50977 3.3129C7.50977 2.38114 8.26511 1.6258 9.19687 1.6258C10.1286 1.6258 10.884 2.38114 10.884 3.3129Z" stroke="black" stroke-width="1.25"/>
<path d="M18.7205 9.19766V10.8848H20.4076C21.3394 10.8848 22.0947 10.1294 22.0947 9.19766C22.0947 8.2659 21.3394 7.51056 20.4076 7.51056C19.4759 7.51056 18.7205 8.2659 18.7205 9.19766Z" stroke="black" stroke-width="1.25"/>
<path d="M4.9992 14.3824V12.6953H3.3121C2.38034 12.6953 1.625 13.4507 1.625 14.3824C1.625 15.3142 2.38034 16.0695 3.3121 16.0695C4.24386 16.0695 4.9992 15.3142 4.9992 14.3824Z" stroke="black" stroke-width="1.25"/>
<path d="M13.116 20.2672V18.5801H14.8031C15.7349 18.5801 16.4902 19.3354 16.4902 20.2672C16.4902 21.1989 15.7349 21.9543 14.8031 21.9543C13.8714 21.9543 13.116 21.1989 13.116 20.2672Z" stroke="black" stroke-width="1.25"/>
</svg>
