<svg width="36" height="36" viewBox="0 0 36 36" fill="none" xmlns="http://www.w3.org/2000/svg">
<g clip-path="url(#clip0_1424_546)">
<path fill-rule="evenodd" clip-rule="evenodd" d="M18 25.5C22.1421 25.5 25.5 22.1421 25.5 18C25.5 13.8579 22.1421 10.5 18 10.5C13.8579 10.5 10.5 13.8579 10.5 18C10.5 22.1421 13.8579 25.5 18 25.5ZM18 35.5C27.665 35.5 35.5 27.665 35.5 18C35.5 8.33502 27.665 0.5 18 0.5C8.33502 0.5 0.5 8.33502 0.5 18C0.5 27.665 8.33502 35.5 18 35.5Z" fill="url(#paint0_linear_1424_546)"/>
</g>
<defs>
<linearGradient id="paint0_linear_1424_546" x1="18" y1="0.5" x2="18" y2="35.5" gradientUnits="userSpaceOnUse">
<stop stop-color="#F13904"/>
<stop offset="1" stop-color="#FFAA91"/>
</linearGradient>
<clipPath id="clip0_1424_546">
<rect width="35" height="35" fill="white" transform="translate(0.5 0.5)"/>
</clipPath>
</defs>
</svg>
