<svg width="19" height="19" viewBox="0 0 19 19" fill="none" xmlns="http://www.w3.org/2000/svg">
<path fill-rule="evenodd" clip-rule="evenodd" d="M2.75 4.125C2.75 3.36561 3.36561 2.75 4.125 2.75H15.086C15.8454 2.75 16.461 3.36561 16.461 4.125V14.2549C16.461 15.0143 15.8454 15.6299 15.086 15.6299H13.3458C13.0006 15.6299 12.7208 15.9097 12.7208 16.2549C12.7208 16.6 13.0006 16.8799 13.3458 16.8799H15.086C16.5358 16.8799 17.711 15.7046 17.711 14.2549V4.125C17.711 2.67525 16.5358 1.5 15.086 1.5H4.125C2.67525 1.5 1.5 2.67525 1.5 4.125V14.2549C1.5 15.7046 2.67525 16.8799 4.125 16.8799H5.86526C6.21044 16.8799 6.49026 16.6 6.49026 16.2549C6.49026 15.9097 6.21044 15.6299 5.86526 15.6299H4.125C3.36561 15.6299 2.75 15.0143 2.75 14.2549V4.125ZM10.0473 9.55806C9.80324 9.31398 9.40752 9.31398 9.16344 9.55806L6.25435 12.4671C6.01027 12.7112 6.01027 13.107 6.25435 13.351C6.49843 13.5951 6.89415 13.5951 7.13823 13.351L8.98038 11.5089V18C8.98038 18.3452 9.2602 18.625 9.60538 18.625C9.95056 18.625 10.2304 18.3452 10.2304 18V11.5089L12.0725 13.351C12.3166 13.5951 12.7123 13.5951 12.9564 13.351C13.2005 13.107 13.2005 12.7112 12.9564 12.4671L10.0473 9.55806Z" fill="black"/>
<path fill-rule="evenodd" clip-rule="evenodd" d="M5 5.69231L6.92308 4.92308L7.69231 3L8.46154 4.92308L10 5.69231L8.46154 6.07692L7.69231 8L6.92308 6.07692L5 5.69231ZM3 8.61538L4.15385 8.15385L4.61538 7L5.07692 8.15385L6 8.61538L5.07692 8.84615L4.61538 10L4.15385 8.84615L3 8.61538Z" fill="url(#paint0_linear_274_137)"/>
<defs>
<linearGradient id="paint0_linear_274_137" x1="6.5" y1="3" x2="6.5" y2="10" gradientUnits="userSpaceOnUse">
<stop stop-color="#288EE8"/>
<stop offset="1" stop-color="#34E7FF"/>
</linearGradient>
</defs>
</svg>
