<svg width="19" height="19" viewBox="0 0 19 19" fill="none" xmlns="http://www.w3.org/2000/svg">
<path d="M11.1667 17H4C2.89543 17 2 16.1046 2 15V4C2 2.89543 2.89543 2 4 2H15C16.1046 2 17 2.89543 17 4V11.1667M11.1667 17L17 11.1667M11.1667 17V13.1667C11.1667 12.0621 12.0621 11.1667 13.1667 11.1667H17" stroke="black" stroke-linejoin="round"/>
<path d="M15.5429 11.25H11.75C11.4739 11.25 11.25 11.4739 11.25 11.75V15.5429C11.25 15.9883 11.7886 16.2114 12.1036 15.8964L15.8964 12.1036C16.2114 11.7886 15.9883 11.25 15.5429 11.25Z" fill="black"/>
<path fill-rule="evenodd" clip-rule="evenodd" d="M5 5.69231L6.92308 4.92308L7.69231 3L8.46154 4.92308L10 5.69231L8.46154 6.07692L7.69231 8L6.92308 6.07692L5 5.69231ZM3 8.61538L4.15385 8.15385L4.61538 7L5.07692 8.15385L6 8.61538L5.07692 8.84615L4.61538 10L4.15385 8.84615L3 8.61538Z" fill="url(#paint0_linear_274_143)"/>
<defs>
<linearGradient id="paint0_linear_274_143" x1="6.5" y1="3" x2="6.5" y2="10" gradientUnits="userSpaceOnUse">
<stop stop-color="#288EE8"/>
<stop offset="1" stop-color="#34E7FF"/>
</linearGradient>
</defs>
</svg>
