<svg width="24" height="24" viewBox="0 0 24 24" fill="none" xmlns="http://www.w3.org/2000/svg">
<path d="M10.0977 7.49914L6.70006 7.86861C5.96183 7.94888 5.32885 8.43156 5.05608 9.12223L4.01116 11.768C3.66796 12.637 4.59807 13.4602 5.41892 13.0138L7.9284 11.725M16.3295 13.9991L15.96 17.3968C15.8798 18.135 15.3971 18.768 14.7064 19.0407L12.0606 20.0856C11.1916 20.4289 10.3685 19.4987 10.8148 18.6779L12.2054 16.0868M19.9993 3.99916C20.9993 4.99914 20.3089 9.61114 17.0385 12.8815C15.7399 14.1801 14.3299 15.1721 12.9993 15.7938C10.6904 16.8727 11.4272 15.1134 10.1561 13.8423C8.88496 12.5711 7.12569 13.3081 8.20459 10.9991C8.82631 9.66859 9.81829 8.25858 11.1169 6.95995C14.3873 3.68955 18.9993 2.99917 19.9993 3.99916ZM7.52493 19.0883C6.86044 19.7528 3.6748 20.5321 3.6748 20.5321C3.6748 20.5321 4.45411 17.3464 5.1186 16.682C5.78309 16.0175 6.86044 16.0175 7.52493 16.682C8.18942 17.3464 8.18942 18.4238 7.52493 19.0883ZM16.9994 7.99914C16.9994 8.55143 16.5517 8.99914 15.9994 8.99914C15.4472 8.99914 14.9994 8.55143 14.9994 7.99914C14.9994 7.44686 15.4472 6.99915 15.9994 6.99915C16.5517 6.99915 16.9994 7.44686 16.9994 7.99914Z" stroke="black" stroke-width="1.25" stroke-linecap="round"/>
</svg>
