<svg width="24" height="24" viewBox="0 0 24 24" fill="none" xmlns="http://www.w3.org/2000/svg">
<mask id="path-1-inside-1_1752_533" fill="white">
<path fill-rule="evenodd" clip-rule="evenodd" d="M20 14.9297C22.3912 13.5465 24 10.9611 24 8C24 3.58172 20.4183 0 16 0C13.0389 0 10.4535 1.60879 9.07026 4H5C2.23858 4 0 6.23858 0 9V19C0 21.7614 2.23858 24 5 24H15C17.7614 24 20 21.7614 20 19V14.9297Z"/>
</mask>
<path d="M20 14.9297L18.9985 13.1985L18 13.7762V14.9297H20ZM9.07026 4V6H10.2238L10.8015 5.00145L9.07026 4ZM22 8C22 10.2183 20.7972 12.1581 18.9985 13.1985L21.0015 16.661C23.9852 14.9349 26 11.7039 26 8H22ZM16 2C19.3137 2 22 4.68629 22 8H26C26 2.47715 21.5228 -2 16 -2V2ZM10.8015 5.00145C11.8419 3.20283 13.7817 2 16 2V-2C12.2961 -2 9.06507 0.0147598 7.33905 2.99855L10.8015 5.00145ZM5 6H9.07026V2H5V6ZM2 9C2 7.34315 3.34315 6 5 6V2C1.13401 2 -2 5.13401 -2 9H2ZM2 19V9H-2V19H2ZM5 22C3.34315 22 2 20.6569 2 19H-2C-2 22.866 1.13401 26 5 26V22ZM15 22H5V26H15V22ZM18 19C18 20.6569 16.6569 22 15 22V26C18.866 26 22 22.866 22 19H18ZM18 14.9297V19H22V14.9297H18Z" fill="black" mask="url(#path-1-inside-1_1752_533)"/>
</svg>
