<svg width="33" height="34" viewBox="0 0 33 34" fill="none" xmlns="http://www.w3.org/2000/svg">
<path fill-rule="evenodd" clip-rule="evenodd" d="M31 5.74181C31 8.84173 28.487 11.3547 25.3871 11.3547V11.3547C23.9557 11.3547 22.4002 11.5881 21.4627 12.6698L20.0037 14.3533C18.3897 16.2155 18.6603 19.0151 19.3839 21.3708C19.6376 22.1969 19.7742 23.0744 19.7742 23.9837C19.7742 28.892 15.7953 32.8708 10.8871 32.8708C5.97889 32.8708 2 28.892 2 23.9837C2 19.0755 5.97889 15.0966 10.8871 15.0966C11.2272 15.0966 11.5629 15.1158 11.893 15.1529C14.2014 15.413 16.8009 15.192 18.3223 13.4366L18.5863 13.132C20.2145 11.2533 19.8077 8.30373 19.7747 5.81778C19.7744 5.7925 19.7742 5.76717 19.7742 5.74181C19.7742 2.64189 22.2872 0.128906 25.3871 0.128906C28.487 0.128906 31 2.64189 31 5.74181Z" fill="url(#paint0_linear_1705_337)"/>
<defs>
<linearGradient id="paint0_linear_1705_337" x1="16.5" y1="0.128906" x2="16.5" y2="32.8708" gradientUnits="userSpaceOnUse">
<stop stop-color="#176ED3"/>
<stop offset="1" stop-color="#A764D0"/>
</linearGradient>
</defs>
</svg>
