<svg width="24" height="24" viewBox="0 0 24 24" fill="none" xmlns="http://www.w3.org/2000/svg">
<path d="M6.58588 12.6607L5.44434 7.86621M10.363 13.637L17.6187 6.38135M15.1 18.5L11.3 17.5M11.5 16.5C11.5 18.7091 9.70914 20.5 7.5 20.5C5.29086 20.5 3.5 18.7091 3.5 16.5C3.5 14.2909 5.29086 12.5 7.5 12.5C9.70914 12.5 11.5 14.2909 11.5 16.5ZM7 6C7 7.10457 6.10457 8 5 8C3.89543 8 3 7.10457 3 6C3 4.89543 3.89543 4 5 4C6.10457 4 7 4.89543 7 6ZM21 5C21 6.10457 20.1046 7 19 7C17.8954 7 17 6.10457 17 5C17 3.89543 17.8954 3 19 3C20.1046 3 21 3.89543 21 5ZM19 19C19 20.1046 18.1046 21 17 21C15.8954 21 15 20.1046 15 19C15 17.8954 15.8954 17 17 17C18.1046 17 19 17.8954 19 19Z" stroke="black" stroke-width="1.25" stroke-linecap="round"/>
</svg>
