<svg width="24" height="24" viewBox="0 0 24 24" fill="none" xmlns="http://www.w3.org/2000/svg">
<path d="M10.7526 13.6512C10.1905 13.0891 9.35018 12.9504 8.56018 13.039C7.10096 13.2025 5.58349 12.7248 4.46447 11.6058C2.51184 9.65323 2.51184 6.4874 4.46447 4.53478C6.41709 2.58216 9.58291 2.58216 11.5356 4.53478C12.6546 5.6538 13.1323 7.17127 12.9687 8.6305C12.8802 9.4205 13.0189 10.2607 13.581 10.8228L20.5817 17.8236C20.8182 18.06 20.9208 18.3989 20.8552 18.7268L20.7674 19.1659C20.6739 19.6333 20.2635 19.9698 19.7868 19.9698H17.4853C17.2201 19.9698 16.9657 19.8644 16.7782 19.6769L16.1007 18.9994C15.931 18.8297 15.8428 18.595 15.8588 18.3555C15.8923 17.8531 15.4754 17.4363 14.973 17.4698C14.7336 17.4857 14.4989 17.3975 14.3292 17.2279L13.4607 16.3594C13.249 16.1476 13.1505 15.8478 13.1955 15.5517C13.2909 14.9238 12.7504 14.3833 12.1226 14.4788C11.8265 14.5238 11.5266 14.4253 11.3149 14.2135L10.7526 13.6512Z" stroke="black" stroke-width="1.25" stroke-linecap="round"/>
<path d="M7.9229 8.07525C7.41241 8.58573 6.58475 8.58573 6.07427 8.07525C5.56378 7.56476 5.56378 6.7371 6.07427 6.22661C6.58475 5.71613 7.41241 5.71613 7.9229 6.22661C8.43339 6.7371 8.43339 7.56476 7.9229 8.07525Z" stroke="black" stroke-width="1.25" stroke-linecap="round"/>
</svg>
