<svg width="24" height="24" viewBox="0 0 24 24" fill="none" xmlns="http://www.w3.org/2000/svg">
<path d="M7.68422 18.5H5.83858C3.99739 18.5 2.5 16.8525 2.5 14.827C2.5 13.3341 3.59547 12.2286 4.97567 11.9575C5.74172 11.8071 6.49702 11.2386 6.64206 10.4715C7.17183 7.66975 9.13296 5.5 11.6742 5.5C13.5822 5.5 15.3951 6.60032 16.1903 8.80097C16.4207 9.43853 17.0588 9.87291 17.7336 9.93802C19.7615 10.1337 21.5013 11.765 21.5 13.7926C21.5 16.3876 19.5816 18.5 17.2212 18.5H15.3755" stroke="black" stroke-width="1.25" stroke-linecap="round"/>
<path d="M11.5 20L11.5001 12M11.5001 12L8.5 14.8636M11.5001 12L14.5 14.8636" stroke="black" stroke-width="1.25" stroke-linecap="round"/>
</svg>
